<?xml version="1.0" standalone="no"?>
<!DOCTYPE svg PUBLIC "-//W3C//DTD SVG 20010904//EN"
 "http://www.w3.org/TR/2001/REC-SVG-20010904/DTD/svg10.dtd">
<svg version="1.0" xmlns="http://www.w3.org/2000/svg"
 width="183.000000pt" height="42.000000pt" viewBox="0 0 183.000000 42.000000"
 preserveAspectRatio="xMidYMid meet">

<g transform="translate(0.000000,42.000000) scale(0.100000,-0.100000)"
fill="#000000" stroke="none">
<path d="M1550 380 c0 -11 6 -20 14 -20 8 0 21 -3 30 -6 12 -5 16 0 16 20 0
22 -4 26 -30 26 -23 0 -30 -4 -30 -20z"/>
<path d="M1330 235 l0 -145 30 0 30 0 0 65 c0 63 1 65 25 65 21 0 25 5 25 30
0 25 -4 30 -25 30 -37 0 -35 38 3 42 21 2 28 9 30 31 3 27 3 27 -57 27 l-61 0
0 -145z"/>
<path d="M1460 235 l0 -145 33 0 32 0 3 145 4 145 -36 0 -36 0 0 -145z"/>
<path d="M74 358 c-49 -13 -54 -25 -54 -118 0 -48 3 -108 6 -134 l7 -46 166 2
166 3 3 49 3 49 50 -49 49 -48 0 137 c0 75 -4 137 -8 137 -4 0 -24 -18 -45
-40 -20 -22 -39 -40 -42 -40 -3 0 -5 20 -5 45 0 28 -5 47 -12 50 -23 7 -258
10 -284 3z m146 -93 c0 -33 2 -35 35 -35 28 0 35 -4 35 -20 0 -16 -7 -20 -34
-20 -33 0 -35 -2 -38 -37 -2 -26 -8 -39 -20 -41 -13 -2 -17 5 -20 35 -3 36 -5
38 -40 41 -30 3 -38 7 -38 23 0 16 7 19 40 19 39 0 40 1 40 35 0 28 4 35 20
35 16 0 20 -7 20 -35z"/>
<path d="M1550 215 l0 -125 30 0 30 0 0 125 0 125 -30 0 -30 0 0 -125z"/>
<path d="M1630 337 c0 -2 9 -29 19 -60 20 -56 20 -58 0 -114 -24 -69 -24 -73
0 -73 12 0 23 12 31 33 l13 32 10 -32 c8 -28 15 -33 42 -33 l32 0 -22 62 c-22
62 -22 62 -4 117 24 67 24 71 -1 71 -13 0 -22 -9 -26 -25 -3 -14 -10 -25 -14
-25 -4 0 -11 11 -14 25 -5 20 -13 25 -36 25 -17 0 -30 -2 -30 -3z"/>
</g>
</svg>
